<svg xmlns="http://www.w3.org/2000/svg" version="1.1" xmlns:xlink="http://www.w3.org/1999/xlink" xmlns:svgjs="http://svgjs.dev/svgjs" width="2000" height="1500" viewBox="0 0 2000 1500"><rect width="2000" height="1500" fill="#ffffff"></rect><g transform="matrix(0.75,0,0,0.75,249.090909090909,278.98548387096776)"><svg viewBox="0 0 396 248" data-background-color="#ffffff" preserveAspectRatio="xMidYMid meet" height="1252" width="2000" xmlns="http://www.w3.org/2000/svg" xmlns:xlink="http://www.w3.org/1999/xlink"><g id="tight-bounds" transform="matrix(1,0,0,1,0.2400000000000091,0.4000000000000057)"><svg viewBox="0 0 395.52 247.2" height="247.2" width="395.52"><g><svg></svg></g><g><svg viewBox="0 0 395.52 247.2" height="247.2" width="395.52"><g transform="matrix(1,0,0,1,75.54432,81.59620238193018)"><svg viewBox="0 0 244.43135999999998 84.00759523613962" height="84.00759523613962" width="244.43135999999998"><g><svg viewBox="0 0 244.43135999999998 84.00759523613962" height="84.00759523613962" width="244.43135999999998"><g><svg viewBox="0 0 244.43135999999998 84.00759523613962" height="84.00759523613962" width="244.43135999999998"><g><svg viewBox="0 0 244.43135999999998 84.00759523613962" height="84.00759523613962" width="244.43135999999998"><g id="textblocktransform"><svg viewBox="0 0 244.43135999999998 84.00759523613962" height="84.00759523613962" width="244.43135999999998" id="textblock"><g><svg viewBox="0 0 244.43135999999998 84.00759523613962" height="84.00759523613962" width="244.43135999999998"><g transform="matrix(1,0,0,1,0,0)"><svg width="244.43135999999998" viewBox="1.23 -33.48 97.39 33.48" height="84.00759523613962" data-palette-color="#000000"><path d="M5.43 0L1.23 0 11.23-31.95 17.78-31.95 27.8 0 23.6 0 14.83-29.15 14.2-29.15 5.43 0ZM21.78-9.43L7.23-9.43 7.23-12.88 21.78-12.88 21.78-9.43ZM66.85 0L62.8 0 62.8-15.28Q62.8-17.2 62.31-18.61 61.82-20.03 60.71-20.8 59.6-21.58 57.72-21.58L57.72-21.58Q55.95-21.58 54.65-20.85 53.35-20.13 52.55-18.91 51.75-17.7 51.42-16.15L51.42-16.15 50.8-19.03 51.3-19.03Q51.7-20.6 52.65-21.95 53.6-23.3 55.22-24.13 56.85-24.95 59.25-24.95L59.25-24.95Q61.97-24.95 63.64-23.88 65.3-22.8 66.07-20.74 66.85-18.68 66.85-15.73L66.85-15.73 66.85 0ZM36.37 0L32.32 0 32.32-24.4 36.37-24.4 36.2-18.55 36.37-18.3 36.37 0ZM51.6 0L47.57 0 47.57-15.28Q47.57-17.2 47.09-18.61 46.6-20.03 45.5-20.8 44.4-21.58 42.52-21.58L42.52-21.58Q40.72-21.58 39.42-20.85 38.12-20.13 37.32-18.89 36.52-17.65 36.2-16.07L36.2-16.07 35.45-18.95 36.35-18.95Q36.72-20.6 37.65-21.96 38.57-23.33 40.16-24.14 41.75-24.95 44.02-24.95L44.02-24.95Q47.4-24.95 49.16-23.2 50.92-21.45 51.37-18.1L51.37-18.1Q51.5-17.6 51.55-17.01 51.6-16.43 51.6-15.85L51.6-15.85 51.6 0ZM77.25 0L73.2 0 73.2-24.4 77.25-24.4 77.25 0ZM75.22-28.4L75.22-28.4Q73.97-28.4 73.36-29.06 72.75-29.73 72.75-30.88L72.75-30.88 72.75-31Q72.75-32.18 73.36-32.83 73.97-33.48 75.22-33.48L75.22-33.48Q76.47-33.48 77.1-32.83 77.72-32.18 77.72-31L77.72-31 77.72-30.88Q77.72-29.7 77.1-29.05 76.47-28.4 75.22-28.4ZM87.79-14.93L87.79-14.93 86.87-18.05 87.87-18.1Q88.67-21.2 90.62-22.99 92.57-24.78 95.79-24.78L95.79-24.78Q96.59-24.78 97.23-24.65 97.87-24.53 98.37-24.35L98.37-24.35 98.62-20.43Q97.99-20.63 97.23-20.75 96.47-20.88 95.54-20.88L95.54-20.88Q92.79-20.88 90.76-19.35 88.72-17.82 87.79-14.93ZM87.99 0L83.94 0 83.94-24.4 87.89-24.4 87.69-17.2 87.99-16.9 87.99 0Z" opacity="1" transform="matrix(1,0,0,1,0,0)" fill="#000000" class="wordmark-text-0" data-fill-palette-color="primary" id="text-0"></path></svg></g></svg></g></svg></g></svg></g></svg></g></svg></g></svg></g><path d="M179.949 75.596L179.949 21.204 384.742 21.204 384.742 225.996 179.949 225.996 179.949 171.604 187.525 171.604 187.525 218.42 377.166 218.42 377.166 28.78 187.525 28.78 187.525 75.596Z" fill="#000000" stroke="transparent" data-fill-palette-color="tertiary"></path></svg></g><defs></defs></svg><rect width="395.52" height="247.2" fill="none" stroke="none" visibility="hidden"></rect></g></svg></g></svg>